<svg width="15" height="18" viewBox="0 0 15 18" fill="none" xmlns="http://www.w3.org/2000/svg">
<path d="M4.58844 17.7482C4.02285 17.7176 3.49061 17.4709 3.1016 17.0592C2.6362 16.6115 2.2209 16.1144 1.86301 15.5768C1.30396 14.7763 0.862058 13.9001 0.550667 12.9746C0.198253 11.979 0.0128585 10.932 0.00198261 9.87593C-0.0253955 8.83968 0.231224 7.81569 0.744056 6.91483C1.11966 6.26549 1.6554 5.72324 2.30016 5.33984C2.93779 4.95806 3.66541 4.75257 4.40855 4.74438C4.96876 4.77752 5.51928 4.90557 6.03661 5.12306C6.44947 5.30476 6.88302 5.43248 7.32827 5.50264C7.8194 5.39976 8.29931 5.24913 8.76114 5.0529C9.30773 4.83948 9.88645 4.71997 10.4729 4.6994C10.5511 4.6994 10.6285 4.6994 10.7031 4.7084C11.9894 4.74528 13.1857 5.37672 13.9413 6.41742C13.3516 6.7328 12.8609 7.20553 12.5238 7.78306C12.1867 8.36059 12.0163 9.02029 12.0317 9.68883C12.0258 10.2 12.1283 10.7067 12.3325 11.1754C12.5367 11.6441 12.8379 12.0642 13.2163 12.408C13.5608 12.7361 13.9618 12.9991 14.4 13.1842C14.3101 13.4541 14.2066 13.7149 14.0969 13.9776C13.8477 14.558 13.5403 15.1116 13.1794 15.6299C12.8381 16.1492 12.4409 16.6294 11.9948 17.0619C11.5879 17.4657 11.0455 17.7038 10.4729 17.7302C9.98746 17.7087 9.51061 17.5948 9.06787 17.3947C8.59042 17.1867 8.07734 17.0728 7.55674 17.0592C7.02145 17.0697 6.49317 17.183 6.00063 17.3929C5.57522 17.5848 5.12071 17.7043 4.6559 17.7464L4.58844 17.7482ZM7.42181 4.6994C7.35435 4.6994 7.28689 4.6994 7.21943 4.69131C7.20524 4.58424 7.19773 4.4764 7.19694 4.3684C7.22637 3.46993 7.57749 2.61192 8.18637 1.95059C8.52694 1.57051 8.93972 1.262 9.40068 1.04301C9.83024 0.821874 10.2997 0.688843 10.7814 0.651733C10.7949 0.769566 10.7949 0.8847 10.7949 0.994436C10.7822 1.87878 10.4499 2.72866 9.85941 3.38706C9.57349 3.77044 9.20712 4.08658 8.78601 4.3133C8.3649 4.54001 7.89927 4.6718 7.42181 4.6994Z" fill="black"/>
</svg>
