<svg width="18" height="18" viewBox="0 0 18 18" fill="none" xmlns="http://www.w3.org/2000/svg">
<path d="M16.3544 7.53113H15.7502V7.5H9.00024V10.5H13.2389C12.6205 12.2464 10.9589 13.5 9.00024 13.5C6.51512 13.5 4.50024 11.4851 4.50024 9C4.50024 6.51488 6.51512 4.5 9.00024 4.5C10.1474 4.5 11.191 4.93275 11.9856 5.63963L14.107 3.51825C12.7675 2.26988 10.9757 1.5 9.00024 1.5C4.85837 1.5 1.50024 4.85813 1.50024 9C1.50024 13.1419 4.85837 16.5 9.00024 16.5C13.1421 16.5 16.5002 13.1419 16.5002 9C16.5002 8.49713 16.4485 8.00625 16.3544 7.53113Z" fill="#FFC107"/>
<path d="M2.36499 5.50913L4.82912 7.31625C5.49587 5.6655 7.11062 4.5 9.00024 4.5C10.1474 4.5 11.191 4.93275 11.9856 5.63963L14.107 3.51825C12.7675 2.26988 10.9757 1.5 9.00024 1.5C6.11949 1.5 3.62124 3.12638 2.36499 5.50913Z" fill="#FF3D00"/>
<path d="M9.00036 16.5001C10.9376 16.5001 12.6979 15.7588 14.0287 14.5531L11.7075 12.5889C10.9292 13.1808 9.97816 13.5009 9.00036 13.5001C7.04961 13.5001 5.39324 12.2563 4.76924 10.5204L2.32349 12.4048C3.56474 14.8336 6.08549 16.5001 9.00036 16.5001Z" fill="#4CAF50"/>
<path d="M16.3544 7.53113H15.7502V7.5H9.00024V10.5H13.2389C12.9431 11.3312 12.4103 12.0574 11.7062 12.5891L11.7074 12.5884L14.0286 14.5526C13.8644 14.7019 16.5002 12.75 16.5002 9C16.5002 8.49712 16.4485 8.00625 16.3544 7.53113Z" fill="#1976D2"/>
</svg>
