<svg width="17" height="16" viewBox="0 0 17 16" fill="none" xmlns="http://www.w3.org/2000/svg">
<path fill-rule="evenodd" clip-rule="evenodd" d="M5.11359 0.152593C5.95545 0.113837 6.22387 0.105225 8.36837 0.105225C10.5129 0.105225 10.7813 0.114555 11.6224 0.152593C12.4636 0.190631 13.0377 0.324842 13.5401 0.51934C14.0662 0.718143 14.5435 1.02891 14.9382 1.43082C15.3401 1.82484 15.6502 2.3014 15.8483 2.82819C16.0435 3.33058 16.177 3.90475 16.2157 4.74446C16.2545 5.58776 16.2631 5.85618 16.2631 7.99996C16.2631 10.1445 16.2538 10.4129 16.2157 11.2547C16.1777 12.0945 16.0435 12.6686 15.8483 13.171C15.6502 13.6979 15.3396 14.1752 14.9382 14.5698C14.5435 14.9717 14.0662 15.2818 13.5401 15.4799C13.0377 15.6751 12.4636 15.8086 11.6239 15.8473C10.7813 15.8861 10.5129 15.8947 8.36837 15.8947C6.22387 15.8947 5.95545 15.8854 5.11359 15.8473C4.27387 15.8093 3.69971 15.6751 3.19732 15.4799C2.67047 15.2818 2.19312 14.9712 1.79851 14.5698C1.39687 14.1756 1.08606 13.6984 0.887748 13.1717C0.69325 12.6693 0.559757 12.0952 0.521001 11.2555C0.482245 10.4122 0.473633 10.1437 0.473633 7.99996C0.473633 5.85546 0.482963 5.58704 0.521001 4.74589C0.55904 3.90475 0.69325 3.33058 0.887748 2.82819C1.08635 2.30146 1.3974 1.82435 1.79923 1.43011C2.19328 1.02855 2.67014 0.717744 3.1966 0.51934C3.69899 0.324842 4.27315 0.191349 5.11287 0.152593H5.11359ZM11.5586 1.57365C10.726 1.53561 10.4763 1.52771 8.36837 1.52771C6.26048 1.52771 6.01071 1.53561 5.17818 1.57365C4.40808 1.60881 3.99038 1.73728 3.71191 1.84566C3.34373 1.9892 3.08033 2.15929 2.80402 2.43561C2.54209 2.69043 2.34051 3.00064 2.21406 3.3435C2.10569 3.62197 1.97722 4.03967 1.94205 4.80977C1.90402 5.64231 1.89612 5.89207 1.89612 7.99996C1.89612 10.1079 1.90402 10.3576 1.94205 11.1902C1.97722 11.9602 2.10569 12.378 2.21406 12.6564C2.34038 12.9988 2.54205 13.3095 2.80402 13.5643C3.0588 13.8263 3.36957 14.028 3.71191 14.1543C3.99038 14.2626 4.40808 14.3911 5.17818 14.4263C6.01071 14.4643 6.25976 14.4722 8.36837 14.4722C10.477 14.4722 10.726 14.4643 11.5586 14.4263C12.3287 14.3911 12.7464 14.2626 13.0248 14.1543C13.393 14.0107 13.6564 13.8406 13.9327 13.5643C14.1947 13.3095 14.3964 12.9988 14.5227 12.6564C14.6311 12.378 14.7595 11.9602 14.7947 11.1902C14.8327 10.3576 14.8406 10.1079 14.8406 7.99996C14.8406 5.89207 14.8327 5.64231 14.7947 4.80977C14.7595 4.03967 14.6311 3.62197 14.5227 3.3435C14.3791 2.97532 14.209 2.71192 13.9327 2.43561C13.6779 2.1737 13.3677 1.97212 13.0248 1.84566C12.7464 1.73728 12.3287 1.60881 11.5586 1.57365ZM7.36 10.4337C7.92315 10.6681 8.55022 10.6998 9.13411 10.5232C9.718 10.3467 10.2225 9.97287 10.5614 9.46569C10.9003 8.9585 11.0526 8.34939 10.9923 7.74238C10.932 7.13537 10.6629 6.56812 10.2308 6.13752C9.95538 5.86227 9.62235 5.6515 9.25569 5.5204C8.88903 5.3893 8.49786 5.34113 8.11035 5.37935C7.72284 5.41757 7.34862 5.54124 7.01464 5.74144C6.68066 5.94165 6.39522 6.21341 6.17887 6.53718C5.96253 6.86094 5.82066 7.22864 5.76348 7.61381C5.7063 7.99898 5.73523 8.39204 5.84818 8.76469C5.96114 9.13734 6.15532 9.4803 6.41673 9.7689C6.67815 10.0575 7.0003 10.2845 7.36 10.4337ZM5.49899 5.13058C5.8758 4.75377 6.32315 4.45487 6.81547 4.25094C7.3078 4.04701 7.83548 3.94205 8.36837 3.94205C8.90126 3.94205 9.42894 4.04701 9.92127 4.25094C10.4136 4.45487 10.8609 4.75377 11.2377 5.13058C11.6146 5.5074 11.9135 5.95474 12.1174 6.44707C12.3213 6.93939 12.4263 7.46707 12.4263 7.99996C12.4263 8.53286 12.3213 9.06053 12.1174 9.55286C11.9135 10.0452 11.6146 10.4925 11.2377 10.8693C10.4767 11.6303 9.4446 12.0579 8.36837 12.0579C7.29214 12.0579 6.26 11.6303 5.49899 10.8693C4.73799 10.1083 4.31046 9.07619 4.31046 7.99996C4.31046 6.92374 4.73799 5.89159 5.49899 5.13058ZM13.3263 4.54637C13.4196 4.45829 13.4944 4.35236 13.5461 4.23487C13.5978 4.11738 13.6254 3.9907 13.6273 3.86235C13.6292 3.734 13.6053 3.60657 13.557 3.48762C13.5087 3.36867 13.4371 3.26062 13.3463 3.16985C13.2556 3.07908 13.1475 3.00744 13.0286 2.95918C12.9096 2.91093 12.7822 2.88703 12.6538 2.8889C12.5255 2.89077 12.3988 2.91837 12.2813 2.97008C12.1638 3.02178 12.0579 3.09654 11.9698 3.18991C11.7985 3.37151 11.7047 3.61273 11.7083 3.86235C11.712 4.11198 11.8128 4.35035 11.9893 4.52688C12.1658 4.70341 12.4042 4.80419 12.6538 4.80783C12.9035 4.81147 13.1447 4.71768 13.3263 4.54637Z" fill="#414141"/>
</svg>
