<svg width="16" height="16" viewBox="0 0 16 16" fill="none" xmlns="http://www.w3.org/2000/svg">
<path d="M1.93998 3.90707C2.98983 3.90707 3.84091 3.056 3.84091 2.00615C3.84091 0.956296 2.98983 0.105225 1.93998 0.105225C0.890134 0.105225 0.0390625 0.956296 0.0390625 2.00615C0.0390625 3.056 0.890134 3.90707 1.93998 3.90707Z" fill="#414141"/>
<path d="M5.63594 5.34755V15.8938H8.91042V10.6785C8.91042 9.3023 9.16932 7.96957 10.8756 7.96957C12.5585 7.96957 12.5793 9.54296 12.5793 10.7654V15.8947H15.8556V10.1112C15.8556 7.27019 15.2439 5.08691 11.9234 5.08691C10.3292 5.08691 9.26055 5.96179 8.82355 6.78975H8.77924V5.34755H5.63594ZM0.299805 5.34755H3.5795V15.8938H0.299805V5.34755Z" fill="#414141"/>
</svg>
