<svg width="99" height="23" viewBox="0 0 99 23" fill="none" xmlns="http://www.w3.org/2000/svg">
<path fill-rule="evenodd" clip-rule="evenodd" d="M36.0884 11.4103V22.2349H38.9432H41.7981V17.8337V13.4325H45.2477H48.6973V17.8337V22.2349H51.5521H54.4069V11.4103V0.585693H51.5521H48.6973V4.63005V8.6744H45.2477H41.7981V4.63005V0.585693H38.9432H36.0884V11.4103ZM57.7376 11.4103V22.2349H60.7114H63.6852V11.4103V0.585693H60.7114H57.7376V11.4103ZM67.0158 11.4103V22.2349H69.8706H72.7255V18.3095V14.3841H73.5277C74.3135 14.3841 74.3744 14.4614 76.5462 18.2153C77.7652 20.3224 78.8819 22.0921 79.0278 22.1481C79.1736 22.204 80.6522 22.2197 82.3137 22.1828L85.3341 22.1159L82.2466 17.4837C80.5484 14.9358 79.2371 12.787 79.3323 12.7085C79.4277 12.6298 79.9523 12.223 80.498 11.8043C81.0709 11.3649 81.7499 10.5227 82.1039 9.81206C82.5916 8.83356 82.7162 8.23666 82.7122 6.90298C82.7086 5.78007 82.5611 4.90982 82.2663 4.27319C82.0242 3.74981 81.5179 3.033 81.1415 2.68019C80.7652 2.32738 79.9749 1.82541 79.3853 1.56467C78.7958 1.30392 77.6182 0.977758 76.7684 0.840012C75.9186 0.702028 73.3769 0.588548 71.1196 0.587596L67.0158 0.585693V11.4103ZM86.048 11.4103V22.2349H92.4714H98.8948V19.8559V17.4768H95.4452H91.9956V15.4546V13.4325H95.2073H98.419V11.0534V8.6744H95.2073H91.9956V7.00908V5.34376H95.4452H98.8948V2.96473V0.585693H92.4714H86.048V11.4103ZM76.0561 5.55121C76.3832 5.79102 76.7498 6.26492 76.8707 6.60441C77.0165 7.01336 76.9932 7.5465 76.8022 8.18456C76.6092 8.82833 76.2947 9.2606 75.8527 9.48922C75.4894 9.67717 74.6639 9.86511 74.0182 9.90698L72.8444 9.98287L72.7766 7.39163L72.7086 4.80039L74.0851 4.95788C74.8421 5.04448 75.729 5.3114 76.0561 5.55121Z" fill="#1E1E1E"/>
<path fill-rule="evenodd" clip-rule="evenodd" d="M0.0930203 8.54596C0.175573 16.1006 0.235048 17.183 0.626875 18.2322C0.886427 18.9269 1.52044 19.8656 2.16658 20.512C2.85484 21.2 3.70011 21.7586 4.42928 22.0072C5.19985 22.2696 6.36343 22.4031 7.87055 22.4014C9.75522 22.3995 10.3538 22.3032 11.3423 21.8428C11.9991 21.5369 12.8998 20.9236 13.3435 20.4799C13.7872 20.0362 14.3736 19.1902 14.647 18.6C15.1176 17.5832 15.1475 17.0674 15.2141 8.78386L15.2846 0.0409193H12.7844H10.2843L10.216 8.36111C10.1504 16.3661 10.1294 16.6999 9.66339 17.1657C9.39694 17.4319 8.86166 17.7383 8.47387 17.8465C8.08609 17.9548 7.43876 17.9555 7.03575 17.8482C6.6325 17.7409 6.09722 17.4262 5.84623 17.1488C5.41753 16.6754 5.38565 16.1403 5.32142 8.34279L5.25314 0.0409193H2.62669H0L0.0930203 8.54596ZM19.307 11.2019V22.4038H21.924H24.5409V18.3871V14.3705L26.8605 14.2699C28.5905 14.195 29.4824 14.0339 30.3695 13.6359C31.0238 13.3423 31.954 12.7174 32.4364 12.2473C32.9191 11.7772 33.5601 10.8455 33.8608 10.1773C34.3004 9.20043 34.4039 8.56594 34.3891 6.94011C34.3768 5.59501 34.2366 4.61746 33.9704 4.02056C33.7504 3.52692 33.1973 2.70996 32.7412 2.20512C32.2851 1.70029 31.3509 1.03559 30.665 0.728222C29.5071 0.209117 29.0565 0.162964 24.3625 0.0844555L19.307 0V11.2019ZM28.2103 5.07186C28.5619 5.23221 28.9209 5.68303 29.0796 6.16383C29.2283 6.61419 29.2833 7.316 29.2019 7.72305C29.1203 8.13034 28.8227 8.70964 28.5401 9.01035C28.0949 9.48425 27.7942 9.55705 26.2838 9.55705H24.5409V7.17802V4.79898H26.0761C26.9204 4.79898 27.8808 4.92174 28.2103 5.07186Z" fill="#FE5507"/>
</svg>
