<svg width="16" height="14" viewBox="0 0 16 14" fill="none" xmlns="http://www.w3.org/2000/svg">
<path d="M16.0004 2.1046C15.4198 2.36189 14.796 2.53574 14.1403 2.61431C14.8169 2.20945 15.3231 1.57225 15.5644 0.821605C14.9287 1.19919 14.233 1.46497 13.5074 1.60739C13.0195 1.08645 12.3733 0.741167 11.6691 0.62514C10.9648 0.509113 10.242 0.628838 9.61275 0.965726C8.98352 1.30261 8.48312 1.83782 8.18923 2.48824C7.89534 3.13867 7.82442 3.86793 7.98746 4.56279C6.69938 4.49812 5.4393 4.16333 4.28899 3.58014C3.13867 2.99696 2.12384 2.17842 1.31035 1.17764C1.03219 1.65746 0.872251 2.21377 0.872251 2.80624C0.871941 3.3396 1.00329 3.86479 1.25463 4.33521C1.50598 4.80564 1.86955 5.20675 2.31309 5.50296C1.7987 5.48659 1.29565 5.34759 0.845827 5.09754V5.13927C0.845775 5.88732 1.10453 6.61236 1.5782 7.19135C2.05186 7.77035 2.71125 8.16763 3.44449 8.3158C2.9673 8.44494 2.46701 8.46397 1.98139 8.37143C2.18827 9.01509 2.59125 9.57795 3.13391 9.9812C3.67657 10.3845 4.33175 10.6079 5.00772 10.6203C3.86022 11.5211 2.44305 12.0098 0.984209 12.0076C0.725789 12.0077 0.467589 11.9926 0.210938 11.9624C1.69175 12.9145 3.41552 13.4198 5.17601 13.4179C11.1355 13.4179 14.3934 8.482 14.3934 4.20119C14.3934 4.06211 14.3899 3.92164 14.3836 3.78257C15.0173 3.32429 15.5643 2.7568 15.999 2.10668L16.0004 2.1046Z" fill="#414141"/>
</svg>
